<?xml version="1.0" encoding="iso-8859-1"?>
<!-- Generator: Adobe Illustrator 19.0.0, SVG Export Plug-In . SVG Version: 6.00 Build 0)  -->
<svg xmlns="http://www.w3.org/2000/svg" xmlns:xlink="http://www.w3.org/1999/xlink" version="1.1" id="Layer_1" x="0px" y="0px" viewBox="0 0 512 512" style="enable-background:new 0 0 512 512;" xml:space="preserve" width="512" height="512">
<g>
	<g>
		<g>
			<g>
				<g>
					<g>
						<path style="fill:#F2F2F2;" d="M433.121,457.635H24.132c-9.186,0-16.632-7.446-16.632-16.632V32.015        c0-9.186,7.446-16.632,16.632-16.632h408.988c9.186,0,16.632,7.446,16.632,16.632v408.988        C449.753,450.189,442.306,457.635,433.121,457.635z"/>
						<rect x="47.749" y="55.631" style="fill:#46D1C0;" width="361.756" height="316.903"/>
						<rect x="355.764" y="55.631" style="fill:#33BCA5;" width="53.741" height="316.903"/>
						<g>
							<path style="fill:#5292A8;" d="M409.505,372.533V258.403l-38.137-48.053c-9.938-11.122-27.343-11.122-37.28,0         L189.174,372.533H409.505z"/>
							<path style="fill:#426175;" d="M371.368,210.349c-4.232-4.736-9.818-7.448-15.604-8.15v170.335h53.741V258.403         L371.368,210.349z"/>
							<path style="fill:#729CAF;" d="M186.695,163.412c-9.938-11.122-27.343-11.122-37.281,0L47.749,277.194v95.339h325.798         L186.695,163.412z"/>
						</g>
					</g>
				</g>
			</g>
			<path style="fill:#88DBFD;" d="M431.928,326.262c-9.846,0-19.229,1.97-27.79,5.522c0-0.075,0.006-0.15,0.006-0.225     c0-40.081-32.492-72.572-72.573-72.572c-35.244,0-64.61,25.127-71.187,58.441c-0.463-0.008-0.921-0.035-1.386-0.035     c-42.53,0-77.007,34.477-77.007,77.007c0,42.53,34.477,77.007,77.007,77.007c39.266,0,132.849,0,172.93,0     c40.081,0,72.572-32.492,72.572-72.573S472.008,326.262,431.928,326.262z"/>
			<g>
				<path style="fill:#5ABFE9;" d="M431.928,326.262c-9.846,0-19.229,1.97-27.79,5.522c0-0.075,0.006-0.15,0.006-0.225      c0-40.081-32.492-72.572-72.573-72.572c-21.256,0-40.365,9.149-53.635,23.713c40.032,0.058,72.466,32.525,72.466,72.57      c0,0.075-0.005,0.15-0.006,0.225c8.561-3.552,17.944-5.522,27.79-5.522c40.081,0,72.572,32.492,72.572,72.572      c0,18.821-7.166,35.967-18.916,48.863c0.028,0,0.057,0,0.085,0c40.081,0,72.572-32.492,72.572-72.573      C504.5,358.754,472.008,326.262,431.928,326.262z"/>
			</g>
		</g>
		<path style="fill:#FED066;" d="M365.465,438.636v-67.744c0-1.109-0.899-2.008-2.008-2.008h-40.422    c-1.109,0-2.008,0.899-2.008,2.008v67.744h-31.747c-1.789,0-2.685,2.163-1.42,3.428l53.966,53.966c0.784,0.784,2.056,0.784,2.84,0    l53.966-53.966c1.265-1.265,0.369-3.428-1.42-3.428H365.465z"/>
	</g>
	<g>
		<path d="M181.99,450.135H24.132c-5.035,0-9.132-4.097-9.132-9.132V32.015c0-5.036,4.097-9.133,9.132-9.133h408.989    c5.035,0,9.132,4.097,9.132,9.133v265.092c0,4.143,3.357,7.5,7.5,7.5s7.5-3.357,7.5-7.5V32.015    c0-13.307-10.825-24.133-24.132-24.133H24.132C10.825,7.882,0,18.708,0,32.015v408.988c0,13.307,10.825,24.132,24.132,24.132    H181.99c4.143,0,7.5-3.357,7.5-7.5S186.133,450.135,181.99,450.135z"/>
		<path d="M431.928,318.762c-5.049,0-10.034,0.466-14.923,1.39v-61.766c0-0.012,0-0.024,0-0.035V55.63c0-4.143-3.357-7.5-7.5-7.5    H47.749c-4.143,0-7.5,3.357-7.5,7.5v316.903c0,4.143,3.357,7.5,7.5,7.5h127.964c-0.803,4.67-1.222,9.47-1.222,14.366    c0,46.598,37.909,84.508,84.507,84.508h55.097l22.426,22.426c1.796,1.796,4.184,2.784,6.724,2.784s4.928-0.988,6.724-2.784    l22.426-22.426h59.533c44.152,0,80.072-35.921,80.072-80.073S476.08,318.762,431.928,318.762z M402.005,293.498    c-13.564-24.999-40.05-42.011-70.435-42.011c-10.19,0-20.016,1.937-29.086,5.489l37.196-41.629    c3.364-3.765,7.997-5.839,13.047-5.839c4.982,0,9.561,2.02,12.914,5.69l36.363,45.82V293.498z M402.005,63.13v173.757    l-24.762-31.201c-0.091-0.114-0.186-0.227-0.282-0.335c-6.158-6.893-14.991-10.845-24.234-10.845    c-9.242,0-18.074,3.953-24.231,10.845l-47.135,52.752l-89.073-99.69c-6.158-6.892-14.99-10.845-24.233-10.845    c-9.242,0-18.074,3.953-24.232,10.845l-88.572,99.129V63.13H402.005z M55.249,365.034v-84.978l99.758-111.647    c3.364-3.765,7.998-5.839,13.047-5.839c5.05,0,9.684,2.074,13.048,5.839l94.582,105.855c-9.911,9.648-17.377,21.881-21.241,35.75    c-34.302,1.83-63.236,24.209-74.69,55.02H55.249z M343.245,486.843l-20.739-20.739l-0.001-0.001l-19.968-19.968h18.489    c4.143,0,7.5-3.357,7.5-7.5v-62.252h29.438v62.252c0,4.143,3.357,7.5,7.5,7.5h18.488l-19.968,19.968l-0.001,0.001L343.245,486.843    z M431.928,463.908h-44.532l16.539-16.539c2.729-2.729,3.538-6.797,2.061-10.362c-1.477-3.566-4.925-5.87-8.784-5.87h-24.246    v-60.243c0-5.243-4.266-9.509-9.508-9.509h-40.423c-5.242,0-9.508,4.266-9.508,9.509v60.243h-24.247    c-3.858,0-7.306,2.303-8.783,5.868c-1.478,3.564-0.67,7.632,2.06,10.364l16.539,16.539h-40.097    c-38.326,0-69.507-31.181-69.507-69.508c0-6.742,0.965-13.264,2.764-19.433c0.066-0.194,0.125-0.391,0.176-0.592    c8.618-28.596,35.199-49.482,66.567-49.482c0.192,0,0.384,0.008,0.574,0.015c0.223,0.008,0.445,0.015,0.669,0.02    c3.649,0.06,6.797-2.479,7.501-6.046c5.993-30.359,32.837-52.395,63.828-52.395c35.849,0,65.02,29.135,65.073,64.971    c-0.004,0.109-0.006,0.218-0.006,0.327c0,2.506,1.251,4.846,3.335,6.237c2.085,1.392,4.725,1.65,7.04,0.689    c1.415-0.587,2.845-1.122,4.288-1.606c0.359-0.088,0.708-0.202,1.044-0.34c6.312-1.995,12.875-3.004,19.583-3.004    c35.881,0,65.072,29.191,65.072,65.072C497,434.716,467.809,463.908,431.928,463.908z"/>
	</g>
</g>















</svg>
